# xmcd CD database file
#
# Track frame offsets:
#	150
#	16552
#	32302
#	53717
#	70235
#	86942
#	110102
#	127860
#
# Disc length: 1945 seconds
#
# Revision: 1
# Processed by: cddbd v1.4PL0 Copyright (c) Steve Scherf et al.
# Submitted via: CDex 1.50
#
DISCID=5c079708
DTITLE=Blue Muse - Hold Onto Me
DYEAR=1997
DGENRE=Blues
TTITLE0=Hear My Baby Calling
TTITLE1=Hold Onto Me
TTITLE2=Southern Louisiana Blues
TTITLE3=When We Bleed
TTITLE4=Home
TTITLE5=Hopeless Dance
TTITLE6=The Only One I Love
TTITLE7=Revelation
EXTD=YEAR: 1997
EXTT0=
EXTT1=
EXTT2=
EXTT3=
EXTT4=
EXTT5=
EXTT6=
EXTT7=
PLAYORDER=
